<svg width="200" height="200" viewBox="0 0 200 200" fill="none" xmlns="http://www.w3.org/2000/svg">
<path d="M100 33.1426C136.926 33.1428 166.859 63.0769 166.859 100.002C166.859 136.927 136.925 166.86 100 166.86C63.0754 166.86 33.1413 136.927 33.1411 100.002C33.1411 63.0767 63.0753 33.1426 100 33.1426Z" stroke="#FFFAE6"/>
<circle cx="100" cy="100" r="99.5" stroke="#FFFAE6"/>
<path fill-rule="evenodd" clip-rule="evenodd" d="M104.523 177.631C105.441 177.577 106.238 177.697 106.915 177.994C107.58 178.303 108.135 178.75 108.58 179.333C109.025 179.929 109.371 180.624 109.617 181.418C109.851 182.225 109.995 183.1 110.05 184.043C110.106 184.985 110.064 185.864 109.925 186.681C109.787 187.51 109.532 188.241 109.158 188.872C108.785 189.516 108.287 190.031 107.662 190.416C107.026 190.801 106.242 191.021 105.313 191.076C104.333 191.133 103.504 190.989 102.824 190.644C102.133 190.311 101.576 189.834 101.154 189.212C100.719 188.59 100.397 187.881 100.189 187.085C99.9688 186.302 99.8344 185.488 99.7849 184.645C99.7354 183.802 99.7739 182.973 99.9002 182.157C100.015 181.354 100.251 180.618 100.61 179.95C100.957 179.295 101.455 178.756 102.101 178.332C102.737 177.922 103.544 177.688 104.523 177.631ZM104.61 179.1C103.878 179.143 103.298 179.332 102.87 179.668C102.43 180.017 102.102 180.46 101.885 180.995C101.667 181.53 101.533 182.104 101.481 182.717C101.431 183.342 101.424 183.952 101.459 184.547C101.493 185.13 101.571 185.722 101.694 186.324C101.817 186.939 102.018 187.5 102.296 188.006C102.576 188.524 102.954 188.932 103.431 189.227C103.896 189.523 104.495 189.65 105.227 189.607C105.971 189.563 106.562 189.367 107.002 189.018C107.442 188.669 107.77 188.22 107.987 187.672C108.192 187.138 108.319 186.558 108.37 185.933C108.421 185.32 108.43 184.722 108.395 184.14C108.361 183.545 108.281 182.94 108.158 182.325C108.036 181.723 107.841 181.167 107.575 180.66C107.297 180.154 106.919 179.754 106.441 179.458C105.964 179.175 105.354 179.056 104.61 179.1Z" fill="#FFFAE6"/>
<path fill-rule="evenodd" clip-rule="evenodd" d="M93.3606 185.465C93.7825 185.246 94.2839 185.166 94.8645 185.225C95.4574 185.286 95.9442 185.467 96.3253 185.768C96.6941 186.068 96.9615 186.445 97.1273 186.899C97.2794 187.364 97.3276 187.868 97.2721 188.411C97.2139 188.98 97.0645 189.47 96.8225 189.883C96.5683 190.294 96.2245 190.601 95.7916 190.807C95.3586 191.012 94.8517 191.085 94.271 191.026C93.6903 190.966 93.2145 190.793 92.8444 190.506C92.4744 190.218 92.2132 189.848 92.0598 189.395C91.894 188.941 91.8394 188.43 91.8976 187.862C91.9532 187.318 92.1091 186.835 92.3645 186.412C92.6064 185.999 92.9387 185.684 93.3606 185.465ZM94.7296 186.541C94.4084 186.508 94.1478 186.557 93.9473 186.686C93.7468 186.815 93.5906 186.999 93.4788 187.237C93.3671 187.475 93.2974 187.73 93.2696 188.002C93.2418 188.274 93.2587 188.532 93.3212 188.775C93.3824 189.031 93.4982 189.243 93.6684 189.41C93.8384 189.577 94.0842 189.677 94.4052 189.71C94.8994 189.76 95.2682 189.636 95.5111 189.336C95.754 189.036 95.8962 188.683 95.9379 188.275C95.9821 187.843 95.9156 187.455 95.7385 187.113C95.5601 186.782 95.2238 186.592 94.7296 186.541Z" fill="#FFFAE6"/>
<path d="M95.2003 177.731L96.8498 177.9L87.4472 190.178L85.8166 190.012L95.2003 177.731Z" fill="#FFFAE6"/>
<path fill-rule="evenodd" clip-rule="evenodd" d="M115.803 176.149C116.703 175.964 117.51 175.97 118.222 176.166C118.924 176.377 119.538 176.739 120.062 177.252C120.588 177.778 121.03 178.416 121.387 179.166C121.735 179.932 122.004 180.777 122.194 181.702C122.384 182.626 122.469 183.503 122.449 184.331C122.432 185.171 122.283 185.931 122.004 186.609C121.728 187.3 121.309 187.881 120.746 188.351C120.171 188.825 119.428 189.155 118.515 189.343C117.554 189.54 116.712 189.517 115.99 189.272C115.258 189.043 114.639 188.649 114.132 188.094C113.612 187.542 113.192 186.887 112.872 186.129C112.541 185.385 112.291 184.599 112.121 183.772C111.951 182.945 111.87 182.118 111.878 181.293C111.876 180.482 112.005 179.72 112.264 179.007C112.513 178.309 112.928 177.704 113.507 177.192C114.077 176.695 114.842 176.347 115.803 176.149ZM117.963 177.684C117.451 177.472 116.829 177.441 116.099 177.591C115.382 177.739 114.835 178.01 114.46 178.404C114.075 178.813 113.813 179.297 113.674 179.858C113.536 180.419 113.486 181.007 113.524 181.62C113.563 182.246 113.643 182.851 113.763 183.435C113.881 184.007 114.044 184.582 114.251 185.16C114.461 185.751 114.741 186.277 115.089 186.738C115.44 187.211 115.873 187.559 116.388 187.783C116.891 188.009 117.501 188.049 118.219 187.901C118.949 187.751 119.507 187.472 119.892 187.063C120.277 186.654 120.537 186.163 120.673 185.59C120.799 185.032 120.842 184.439 120.802 183.814C120.765 183.2 120.687 182.607 120.57 182.035C120.449 181.452 120.285 180.864 120.075 180.274C119.867 179.695 119.595 179.174 119.259 178.711C118.911 178.25 118.478 177.907 117.963 177.684Z" fill="#FFFAE6"/>
<path d="M127.919 184.137L130.466 183.295L130.811 184.338C130.351 184.53 129.95 184.721 129.608 184.913C129.27 185.116 128.99 185.359 128.77 185.641C128.542 185.939 128.378 186.314 128.279 186.766L127.199 187.122L123.063 174.617L124.602 174.109L127.919 184.137Z" fill="#FFFAE6"/>
<path d="M65.2678 179.055L72.2842 181.779L71.7581 183.134L64.7417 180.41L65.2678 179.055Z" fill="#FFFAE6"/>
<path fill-rule="evenodd" clip-rule="evenodd" d="M86.8134 177.154C87.2353 176.936 87.7302 176.855 88.2984 176.913C88.8915 176.974 89.3787 177.155 89.7599 177.456C90.1287 177.756 90.3961 178.133 90.5619 178.586C90.7265 179.053 90.7813 179.558 90.7257 180.102C90.6675 180.67 90.5107 181.16 90.2564 181.571C90.0023 181.981 89.6589 182.29 89.2263 182.495C88.7933 182.7 88.2862 182.773 87.7056 182.714C87.1374 182.656 86.668 182.483 86.298 182.195C85.9279 181.908 85.6595 181.537 85.4937 181.083C85.3279 180.629 85.2741 180.118 85.3322 179.55C85.3878 179.006 85.5437 178.523 85.7992 178.1C86.0535 177.689 86.3915 177.374 86.8134 177.154ZM88.1825 178.231C87.8613 178.198 87.6006 178.246 87.4002 178.376C87.1874 178.504 87.0311 178.687 86.9317 178.927C86.8199 179.165 86.7503 179.421 86.7225 179.692C86.6947 179.964 86.7117 180.221 86.774 180.465C86.8229 180.72 86.9387 180.932 87.1212 181.1C87.2914 181.267 87.5375 181.367 87.8588 181.4C88.3527 181.451 88.7211 181.326 88.964 181.027C89.1945 180.726 89.3309 180.371 89.3726 179.963C89.4168 179.531 89.3504 179.143 89.1732 178.8C88.9947 178.47 88.6642 178.28 88.1825 178.231Z" fill="#FFFAE6"/>
<path d="M55.994 174.278L62.6253 177.837L61.9378 179.118L55.3072 175.557L55.994 174.278Z" fill="#FFFAE6"/>
<path d="M67.0143 174.557L74.0307 177.281L73.5046 178.636L66.4882 175.911L67.0143 174.557Z" fill="#FFFAE6"/>
<path d="M147.327 172.221L148.073 173.468L141.614 177.331L140.868 176.084L147.327 172.221Z" fill="#FFFAE6"/>
<path d="M58.2764 170.026L64.9077 173.586L64.2202 174.867L57.5889 171.306L58.2764 170.026Z" fill="#FFFAE6"/>
<path d="M47.36 168.43L53.5213 172.753L52.6867 173.943L46.5254 169.62L47.36 168.43Z" fill="#FFFAE6"/>
<path d="M144.851 168.08L145.597 169.327L139.138 173.19L138.392 171.943L144.851 168.08Z" fill="#FFFAE6"/>
<path d="M155.69 165.996L156.577 167.148L150.613 171.74L149.727 170.589L155.69 165.996Z" fill="#FFFAE6"/>
<path d="M50.1314 164.48L56.2927 168.803L55.4581 169.993L49.2968 165.67L50.1314 164.48Z" fill="#FFFAE6"/>
<path d="M152.746 162.173L153.633 163.325L147.669 167.917L146.783 166.766L152.746 162.173Z" fill="#FFFAE6"/>
<path d="M39.4923 161.583L45.0859 166.619L44.1141 167.699L38.5198 162.663L39.4923 161.583Z" fill="#FFFAE6"/>
<path d="M163.229 158.78L164.253 159.813L158.907 165.111L157.884 164.078L163.229 158.78Z" fill="#FFFAE6"/>
<path d="M42.7201 157.997L48.3144 163.032L47.3418 164.113L41.7482 159.077L42.7201 157.997Z" fill="#FFFAE6"/>
<path d="M159.833 155.353L160.856 156.386L155.51 161.684L154.488 160.651L159.833 155.353Z" fill="#FFFAE6"/>
<path d="M32.501 153.845L37.4532 159.513L36.3586 160.469L31.4064 154.801L32.501 153.845Z" fill="#FFFAE6"/>
<path d="M169.861 150.738L170.997 151.644L166.304 157.528L165.169 156.622L169.861 150.738Z" fill="#FFFAE6"/>
<path d="M36.1342 150.67L41.0865 156.338L39.9919 157.294L35.0404 151.626L36.1342 150.67Z" fill="#FFFAE6"/>
<path d="M166.09 147.73L167.225 148.636L162.532 154.52L161.397 153.614L166.09 147.73Z" fill="#FFFAE6"/>
<path d="M26.4958 145.316L30.7249 151.542L29.5227 152.358L25.2936 146.133L26.4958 145.316Z" fill="#FFFAE6"/>
<path d="M30.4869 142.605L34.716 148.831L33.5137 149.648L29.2854 143.422L30.4869 142.605Z" fill="#FFFAE6"/>
<path d="M175.466 141.937L176.705 142.696L172.773 149.113L171.534 148.354L175.466 141.937Z" fill="#FFFAE6"/>
<path d="M171.352 139.416L172.591 140.175L168.658 146.593L167.42 145.833L171.352 139.416Z" fill="#FFFAE6"/>
<path d="M21.564 136.126L25.0108 142.816L23.7191 143.482L20.2724 136.791L21.564 136.126Z" fill="#FFFAE6"/>
<path d="M25.853 133.915L29.2998 140.607L28.0081 141.272L24.5613 134.581L25.853 133.915Z" fill="#FFFAE6"/>
<path d="M179.988 132.544L181.308 133.153L178.154 139.987L176.835 139.378L179.988 132.544Z" fill="#FFFAE6"/>
<path d="M175.607 130.522L176.926 131.131L173.774 137.966L172.454 137.356L175.607 130.522Z" fill="#FFFAE6"/>
<path d="M17.7928 126.398L20.3929 133.461L19.0292 133.963L16.4291 126.9L17.7928 126.398Z" fill="#FFFAE6"/>
<path d="M22.3206 124.731L24.9206 131.794L23.5577 132.296L20.9569 125.233L22.3206 124.731Z" fill="#FFFAE6"/>
<path d="M183.325 122.656L184.71 123.097L182.427 130.269L181.043 129.828L183.325 122.656Z" fill="#FFFAE6"/>
<path d="M178.727 121.193L180.112 121.634L177.83 128.805L176.445 128.365L178.727 121.193Z" fill="#FFFAE6"/>
<path d="M15.2034 116.299L16.9529 123.619L15.5399 123.956L13.7904 116.637L15.2034 116.299Z" fill="#FFFAE6"/>
<path d="M19.8964 115.177L21.6459 122.497L20.2329 122.835L18.4834 115.515L19.8964 115.177Z" fill="#FFFAE6"/>
<path d="M185.462 112.452L186.889 112.726L185.468 120.117L184.041 119.842L185.462 112.452Z" fill="#FFFAE6"/>
<path d="M180.724 111.54L182.151 111.815L180.73 119.206L179.303 118.931L180.724 111.54Z" fill="#FFFAE6"/>
<path d="M186.314 102.048L187.764 102.142L187.282 109.652L185.832 109.559L186.314 102.048Z" fill="#FFFAE6"/>
<path d="M181.499 101.74L182.949 101.832L182.467 109.344L181.017 109.25L181.499 101.74Z" fill="#FFFAE6"/>
<path fill-rule="evenodd" clip-rule="evenodd" d="M22.5631 89.1913L22.4616 90.9394L19.5742 91.8172L19.1967 98.3264L21.9628 99.5325L21.862 101.28L8.99658 95.6255L9.13151 93.3014L22.5631 89.1913ZM10.477 94.5552L17.7587 97.7018L18.0741 92.2712L10.477 94.5552Z" fill="#FFFAE6"/>
<path d="M182.562 91.8104L182.963 99.3263L181.512 99.4036L181.111 91.8884L182.562 91.8104Z" fill="#FFFAE6"/>
<path d="M187.38 91.5534L187.781 99.0685L186.331 99.1466L185.929 91.6307L187.38 91.5534Z" fill="#FFFAE6"/>
<path d="M19.4105 77.2834C20.4907 77.5173 21.4236 77.9038 22.2091 78.4424C22.9947 78.981 23.555 79.6803 23.8897 80.5406C24.2244 81.4009 24.2613 82.4318 24.0011 83.6334C23.7409 84.8351 23.2806 85.7585 22.62 86.4033C21.9594 87.0481 21.1664 87.4549 20.2405 87.623C19.3025 87.7884 18.2871 87.7526 17.1947 87.5161L9.87514 85.931L10.2185 84.3475L17.5192 85.928C18.296 86.0962 19.036 86.1417 19.7387 86.0652C20.4319 85.9739 21.0293 85.7094 21.5307 85.2715C22.0321 84.8337 22.3777 84.1776 22.5669 83.3037C22.7587 82.4177 22.7141 81.684 22.4335 81.1023C22.1555 80.5085 21.7187 80.0327 21.1229 79.675C20.5147 79.3146 19.8219 79.0503 19.0451 78.8821L11.7437 77.3008L12.0909 75.6983L19.4105 77.2834Z" fill="#FFFAE6"/>
<path d="M185.455 67.858L186.008 69.6568L180.77 75.0525L188.126 76.5284L188.67 78.2908L179.452 76.2775L174.717 77.7367L174.239 76.188L178.957 74.7341L185.455 67.858Z" fill="#FFFAE6"/>
<path d="M16.254 63.6402L17.6344 64.1504L16.1684 68.1172L27.1417 72.1742L26.5792 73.6941L15.6059 69.6371L14.1399 73.6039L12.7595 73.0937L16.254 63.6402Z" fill="#FFFAE6"/>
<path d="M182.001 59.9403L182.662 61.42L171.983 66.1971L174.934 72.795L173.591 73.3962L169.977 65.3185L182.001 59.9403Z" fill="#FFFAE6"/>
<path d="M34.0026 58.3522L33.2279 59.7765L28.2037 57.0438L24.8304 63.2468L29.8547 65.9788L29.0807 67.4031L17.5101 61.1107L18.284 59.6863L23.5213 62.535L26.8946 56.332L21.6573 53.4841L22.4312 52.0597L34.0026 58.3522Z" fill="#FFFAE6"/>
<path fill-rule="evenodd" clip-rule="evenodd" d="M178.295 53.3969L169.624 64.4468L168.708 62.955L170.576 60.5838L167.164 55.0274L164.205 55.6195L163.289 54.1277L177.077 51.4124L178.295 53.3969ZM168.701 54.7182L171.547 59.3536L176.475 53.1369L168.701 54.7182Z" fill="#FFFAE6"/>
<path d="M29.982 41.4753L31.16 42.3569L26.8286 48.1437L30.3785 50.8006L34.274 45.5952L35.4672 46.4882L31.5716 51.6936L35.0161 54.2724L39.3476 48.4856L40.5263 49.3672L35.2238 56.4518L24.6788 48.5591L29.982 41.4753Z" fill="#FFFAE6"/>
<path d="M167.97 39.0663L174.332 46.8831L173.191 47.8125L170.522 44.5324L161.448 51.918L160.425 50.6604L169.498 43.2756L166.829 39.9956L167.97 39.0663Z" fill="#FFFAE6"/>
<path d="M49.0913 40.8545L47.6442 42.2788L35.048 39.3323L42.7185 47.1264L41.5633 48.2635L32.3244 38.876L33.798 37.4259L46.3942 40.4247L38.6979 32.604L39.8532 31.467L49.0913 40.8545Z" fill="#FFFAE6"/>
<path d="M165.197 36.1228L166.321 37.2902L156.835 46.4275L155.71 45.2602L165.197 36.1228Z" fill="#FFFAE6"/>
<path d="M50.8864 24.7697L47.4873 27.2864L54.4484 36.6891L53.1461 37.6533L46.185 28.2506L42.786 30.7665L41.9105 29.584L50.0108 23.5872L50.8864 24.7697Z" fill="#FFFAE6"/>
<path d="M152.051 25.1048L159.097 30.458L158.207 31.6299L152.452 27.2568L149.465 31.188L154.494 35.0085L153.592 36.1956L148.563 32.3751L145.374 36.5731L144.084 35.5922L152.051 25.1048Z" fill="#FFFAE6"/>
<path d="M53.5228 21.4109L60.3087 32.6995L58.9193 33.5349L52.1341 22.2462L53.5228 21.4109Z" fill="#FFFAE6"/>
<path fill-rule="evenodd" clip-rule="evenodd" d="M140.416 19.18C141.503 19.1117 142.645 19.4074 143.842 20.0661C145.039 20.7247 145.894 21.5283 146.406 22.4767C146.93 23.4311 147.147 24.4656 147.059 25.5793C146.981 26.699 146.631 27.8248 146.008 28.9563C145.392 30.0769 144.631 30.9699 143.727 31.6345C142.833 32.305 141.843 32.6744 140.757 32.7427C139.681 32.817 138.545 32.5243 137.348 31.8657C136.151 31.207 135.29 30.4005 134.767 29.446C134.243 28.4916 134.02 27.4547 134.097 26.3351C134.186 25.2213 134.538 24.1037 135.155 22.983C135.778 21.8515 136.536 20.9505 137.43 20.2799C138.334 19.6152 139.33 19.2482 140.416 19.18ZM143.132 21.3548C142.229 20.8579 141.361 20.6571 140.529 20.7521C139.708 20.8531 138.959 21.1711 138.283 21.7057C137.616 22.2464 137.052 22.9358 136.591 23.7737C136.136 24.6005 135.859 25.4399 135.758 26.2918C135.658 27.1439 135.785 27.9441 136.139 28.6918C136.504 29.4454 137.143 30.0733 138.057 30.5763C138.971 31.0792 139.836 31.2857 140.651 31.1956C141.472 31.0946 142.21 30.7712 142.866 30.2245C143.532 29.6839 144.095 28.9944 144.556 28.1566C144.903 27.5255 145.148 26.8873 145.291 26.2426C145.449 25.5931 145.483 24.9665 145.39 24.3626C145.297 23.7587 145.066 23.1992 144.697 22.6844C144.328 22.1695 143.806 21.726 143.132 21.3548Z" fill="#FFFAE6"/>
<path d="M64.246 16.5352C65.0134 16.5063 65.7072 16.6419 66.3268 16.9422C66.9464 17.2426 67.4816 17.6856 67.9323 18.2703L66.4466 18.9624C66.0049 18.4559 65.4209 18.1591 64.6955 18.0725C63.9813 17.9807 63.2018 18.1315 62.3577 18.525C61.4122 18.9658 60.7517 19.5484 60.3762 20.2715C60.0069 20.9781 59.855 21.7548 59.9206 22.601C59.9811 23.4359 60.2056 24.2697 60.5938 25.1025C61.003 25.9805 61.5192 26.72 62.1417 27.3205C62.7641 27.921 63.4758 28.3019 64.2771 28.4629C65.0731 28.6125 65.9328 28.4724 66.8559 28.0422C67.4187 27.7798 67.8829 27.4674 68.2484 27.1052C68.6252 26.7377 68.8919 26.3389 69.0481 25.9098C69.2155 25.4756 69.2663 25.041 69.2005 24.606L70.8045 23.8578L70.8469 24.1314C70.9279 24.7682 70.8775 25.3928 70.6953 26.0053C70.4932 26.6887 70.123 27.3207 69.5848 27.9004C69.0466 28.48 68.3325 28.977 67.4434 29.3915C66.2165 29.9633 65.0717 30.1819 64.0087 30.0472C62.9516 29.8959 62.0077 29.4587 61.1774 28.7358C60.3533 27.9964 59.6658 27.0356 59.1148 25.8537C58.5692 24.6831 58.2864 23.5477 58.2666 22.4471C58.2416 21.3352 58.5108 20.3256 59.0747 19.4187C59.6445 18.4954 60.5487 17.7453 61.7869 17.1681C62.6648 16.7589 63.4845 16.5476 64.246 16.5352Z" fill="#FFFAE6"/>
<path d="M122.304 11.5329L130.776 14.0898L130.35 15.4989L123.43 13.4106L122.149 17.6548L128.373 19.534L127.943 20.9606L121.719 19.0822L120.476 23.2021L127.396 25.2905L126.97 26.6989L118.499 24.1428L122.304 11.5329Z" fill="#FFFAE6"/>
<path d="M83.7335 11.6193L79.6288 12.6366L82.4419 23.9927L80.8689 24.3824L78.0559 13.0262L73.9511 14.0428L73.5971 12.6146L83.3795 10.1912L83.7335 11.6193Z" fill="#FFFAE6"/>
<path fill-rule="evenodd" clip-rule="evenodd" d="M97.2789 21.8915L95.5392 22.0901L94.1815 19.3952L87.7034 20.1351L86.9878 23.0672L85.2481 23.2658L88.6214 9.62341L90.9349 9.35962L97.2789 21.8915ZM88.0725 18.6114L93.4773 17.9944L89.9297 10.8992L88.0725 18.6114Z" fill="#FFFAE6"/>
<path d="M109.69 9.22393L119.641 10.8264L119.407 12.2796L115.231 11.6072L113.372 23.1581L111.772 22.9004L113.631 11.3495L109.456 10.6771L109.69 9.22393Z" fill="#FFFAE6"/>
<path d="M101.415 8.88888C101.877 8.81445 102.338 8.78316 102.797 8.79564C103.555 8.81621 104.259 8.95349 104.911 9.20725C105.575 9.44894 106.118 9.8303 106.538 10.3511C106.971 10.8723 107.195 11.568 107.208 12.438L105.626 12.3948C105.578 11.8717 105.415 11.4573 105.137 11.1516C104.86 10.8459 104.512 10.6255 104.093 10.4898C103.674 10.3543 103.229 10.2798 102.757 10.267C102.41 10.2576 102.055 10.2792 101.694 10.3314C101.344 10.384 101.018 10.4866 100.716 10.6399C100.426 10.7812 100.191 10.9863 100.01 11.2547C99.8292 11.5107 99.7332 11.8434 99.722 12.253C99.7133 12.5758 99.7611 12.8628 99.866 13.1142C99.9835 13.3658 100.139 13.5816 100.333 13.7608C100.54 13.9278 100.766 14.0706 101.011 14.1891C101.6 14.4535 102.253 14.6578 102.969 14.8016C103.699 14.9332 104.378 15.1188 105.005 15.3595C105.374 15.4937 105.711 15.6584 106.016 15.8529C106.321 16.0476 106.577 16.272 106.781 16.5261C106.997 16.7804 107.157 17.0706 107.26 17.3963C107.376 17.71 107.428 18.0657 107.418 18.4629C107.398 19.1829 107.257 19.7943 106.995 20.2965C106.733 20.7863 106.381 21.1805 105.938 21.4791C105.495 21.7777 104.986 21.988 104.411 22.109C103.849 22.2304 103.251 22.2824 102.618 22.2652C101.786 22.2426 101.001 22.1094 100.262 21.8657C99.5358 21.6099 98.9193 21.2141 98.4121 20.6786C97.9052 20.1306 97.57 19.4131 97.4077 18.5265L99.1027 18.5728C99.2613 19.1361 99.5291 19.5785 99.9055 19.8993C100.294 20.2204 100.742 20.4497 101.247 20.5876C101.753 20.7132 102.26 20.783 102.769 20.7969C103.278 20.8107 103.752 20.7548 104.191 20.6301C104.641 20.4933 105.008 20.2676 105.29 19.9524C105.584 19.6374 105.738 19.225 105.752 18.716C105.763 18.3188 105.697 17.9936 105.555 17.7412C105.425 17.4893 105.232 17.2855 104.975 17.1295C104.731 16.9614 104.437 16.8228 104.092 16.7141C103.637 16.5526 103.149 16.4152 102.631 16.3017C102.112 16.1882 101.6 16.0564 101.095 15.906C100.602 15.756 100.141 15.5694 99.7122 15.3466C99.4797 15.216 99.2539 15.061 99.0352 14.8811C98.8292 14.6892 98.649 14.4725 98.494 14.2323C98.3518 13.9799 98.2347 13.6971 98.1438 13.384C98.0654 13.0715 98.0314 12.7291 98.0415 12.3569C98.0566 11.7983 98.1568 11.3162 98.3416 10.9113C98.5266 10.5063 98.772 10.1647 99.0777 9.88721C99.3834 9.60978 99.7377 9.38997 100.14 9.22696C100.542 9.06403 100.967 8.95122 101.415 8.88888Z" fill="#FFFAE6"/>
</svg>
